<?xml version="1.0" encoding="utf-8"?>
<!-- Generator: Adobe Illustrator 17.1.0, SVG Export Plug-In . SVG Version: 6.00 Build 0)  -->
<!DOCTYPE svg PUBLIC "-//W3C//DTD SVG 1.1//EN" "http://www.w3.org/Graphics/SVG/1.1/DTD/svg11.dtd">
<svg version="1.1" xmlns="http://www.w3.org/2000/svg" xmlns:xlink="http://www.w3.org/1999/xlink" x="0px" y="0px"
	 viewBox="0 0 216 180" enable-background="new 0 0 216 180" xml:space="preserve">
<g id="Layer_2">
	<path fill="#FFFFFF" stroke="#231F20" stroke-width="2" stroke-miterlimit="10" d="M119.835,107.625
		c0,0,42.301-10.263,32.603-44.746c0,0-7.785-26.945-45.117-18.839c0,0-26.963,4.848-29.522,36.852
		C77.798,80.892,74.681,113.353,119.835,107.625z"/>
	<g>
		<path fill="#231F20" d="M169.986,45.592c0,9.42-7.51,17.2-17.26,18.45c-0.15-0.79-3.27-16.04-22.71-19.88
			c0.78-9.61,9.42-17.19,19.95-17.19C161.026,26.972,169.986,35.312,169.986,45.592z"/>
	</g>
	<g>
		<path fill="#231F20" d="M92.24,50.972c-0.51,0.48-1,0.99-1.47,1.53c0,0-14.17,12.33-13.41,29.67c-2.13,0.58-4.38,0.89-6.71,0.89
			c-13.26,0-24-9.99-24-22.33c0-12.33,10.74-22.33,24-22.33C80.14,38.402,88.35,43.532,92.24,50.972z"/>
	</g>
	<g>
		<path fill="#231F20" d="M117.409,107.83c0.191,0.012,2.026-0.048,1.925-0.062c-1.524-0.223,13.72-3.045,20.976,5.152
			c0,0,2.201,1.983,0.304,9.568c-0.016,0.063-0.043,0.127-0.078,0.181l-16.346,25.253c-0.128,0.198-0.359,0.299-0.59,0.251
			c-1.783-0.369-9.596-1.88-16.624-1.587c-7.772,0.324-10.193-22.677-10.321-23.946c-0.004-0.039-0.009-0.065-0.021-0.102
			c-0.208-0.646-2.247-7.693,6.342-11.399C111.216,107.584,116.544,107.776,117.409,107.83z"/>
		<path fill="#231F20" d="M123.715,148.684c-0.072,0-0.145-0.007-0.216-0.022c-2.008-0.416-9.606-1.863-16.502-1.577l-0.184,0.004
			c-7.974,0-10.405-21.901-10.656-24.399c-0.264-0.822-2.329-8.148,6.62-12.01c7.049-3.042,12.06-3.371,13.887-3.371
			c0.372,0,0.632,0.013,0.775,0.021c0.351-0.007,1.198-0.025,1.611-0.044c1.091-0.63,4.615-0.667,5.418-0.667
			c4.083,0,11.619,0.775,16.216,5.967c0.059,0.049,2.362,2.234,0.415,10.021c-0.028,0.116-0.078,0.231-0.143,0.332l-16.347,25.253
			C124.411,148.501,124.077,148.684,123.715,148.684z M108.834,146.048c6.461,0,13.014,1.251,14.868,1.635l0.014,0.001
			c0.021,0,0.041-0.012,0.056-0.035l16.346-25.252c1.786-7.123-0.128-9.094-0.148-9.113c-4.37-4.932-11.585-5.664-15.5-5.664
			c-2.271,0-4,0.247-4.677,0.407c-0.126,0.292-0.579,0.304-2.296,0.304l-0.118-0.002c-0.132-0.008-0.372-0.02-0.713-0.02
			c-1.765,0-6.612,0.32-13.49,3.289c-8.139,3.512-6.3,10.052-6.064,10.786c0.022,0.072,0.035,0.133,0.042,0.206
			c0.816,8.127,3.886,23.499,9.661,23.499l0.142-0.003C107.577,146.06,108.205,146.048,108.834,146.048z"/>
	</g>
	<g>
		<ellipse fill="#FFFFFF" cx="117.322" cy="130.687" rx="10.997" ry="15.232"/>
		<path fill="#FFFFFF" d="M117.321,146.419c-6.339,0-11.497-7.057-11.497-15.732s5.157-15.732,11.497-15.732
			s11.497,7.057,11.497,15.732S123.661,146.419,117.321,146.419z M117.321,115.955c-5.788,0-10.497,6.609-10.497,14.732
			s4.709,14.732,10.497,14.732c5.788,0,10.497-6.609,10.497-14.732S123.109,115.955,117.321,115.955z"/>
	</g>
	<g>
		<g>
			<ellipse fill="#231F20" cx="96.651" cy="136.848" rx="15.333" ry="16"/>
		</g>
		<g>
			
				<ellipse transform="matrix(0.9418 0.3361 -0.3361 0.9418 52.755 -24.3236)" fill="#FFFFFF" cx="96.651" cy="140.252" rx="7.333" ry="10"/>
		</g>
		<g>
			<ellipse fill="#FFFFFF" cx="104.333" cy="126.514" rx="3.667" ry="4"/>
		</g>
		<g>
			<ellipse fill="#FFFFFF" cx="97.317" cy="125.806" rx="2.333" ry="2.708"/>
		</g>
		<g>
			<ellipse fill="#FFFFFF" cx="92.317" cy="127.848" rx="1.333" ry="2"/>
		</g>
		<g>
			<ellipse fill="#FFFFFF" cx="88.96" cy="130.764" rx="1.341" ry="1.75"/>
		</g>
		<g>
			<ellipse fill="#FFFFFF" cx="86.276" cy="134.286" rx="1.308" ry="1.438"/>
		</g>
	</g>
	<g>
		<g>
			<ellipse fill="#231F20" cx="134.668" cy="137.598" rx="15.333" ry="16"/>
		</g>
		<g>
			
				<ellipse transform="matrix(-0.989 -0.1477 0.1477 -0.989 247.0405 300.3432)" fill="#FFFFFF" cx="134.668" cy="141.002" rx="7.333" ry="10"/>
		</g>
		<g>
			<ellipse fill="#FFFFFF" cx="126.985" cy="127.264" rx="3.667" ry="4"/>
		</g>
		<g>
			<ellipse fill="#FFFFFF" cx="134.001" cy="126.556" rx="2.333" ry="2.708"/>
		</g>
		<g>
			<ellipse fill="#FFFFFF" cx="139.001" cy="128.598" rx="1.333" ry="2"/>
		</g>
		<g>
			<ellipse fill="#FFFFFF" cx="142.359" cy="131.514" rx="1.341" ry="1.75"/>
		</g>
		<g>
			<ellipse fill="#FFFFFF" cx="145.042" cy="135.036" rx="1.308" ry="1.438"/>
		</g>
	</g>
	<g>
		<ellipse fill="#231F20" cx="101.494" cy="72.558" rx="11.516" ry="11.825"/>
		<path fill="#231F20" d="M101.494,84.883c-6.625,0-12.016-5.529-12.016-12.325s5.391-12.325,12.016-12.325
			s12.016,5.529,12.016,12.325S108.12,84.883,101.494,84.883z M101.494,61.232c-6.074,0-11.016,5.081-11.016,11.325
			s4.942,11.325,11.016,11.325s11.016-5.081,11.016-11.325S107.568,61.232,101.494,61.232z"/>
	</g>
	<g>
		<ellipse fill="#231F20" cx="130" cy="69.174" rx="10.354" ry="11.576"/>
		<path fill="#231F20" d="M130,81.249c-5.985,0-10.854-5.417-10.854-12.076S124.015,57.098,130,57.098s10.854,5.417,10.854,12.076
			S135.985,81.249,130,81.249z M130,58.098c-5.434,0-9.854,4.969-9.854,11.076s4.42,11.076,9.854,11.076
			c5.433,0,9.854-4.969,9.854-11.076S135.433,58.098,130,58.098z"/>
	</g>
	<g>
		<ellipse fill="#231F20" cx="117.322" cy="89.598" rx="4.683" ry="2.402"/>
		<path fill="#231F20" d="M117.321,92.5c-2.906,0-5.183-1.275-5.183-2.902s2.277-2.902,5.183-2.902c2.907,0,5.184,1.275,5.184,2.902
			S120.228,92.5,117.321,92.5z M117.321,87.695c-2.465,0-4.183,1.002-4.183,1.902s1.718,1.902,4.183,1.902s4.184-1.002,4.184-1.902
			S119.787,87.695,117.321,87.695z"/>
	</g>
</g>
<g id="Layer_3">
</g>
</svg>
